<?xml version="1.0" standalone="no"?>
<svg xmlns="http://www.w3.org/2000/svg" viewBox="0 0 35 68" width="35" height="68"><g fill="#fe4e01" color="#fe4e01" transform="translate(0 0) scale(0.35) "><svg width="100.0" height="100.0" x="0.0" y="0.0" viewBox="0 0 100 100"><g><path d="M48.7,12.4c-2.5-2.5-5.1-4.6-7.8-6.5c-8.1,1.7-15.4,5.5-21.3,10.9c0.4,0.3,0.7,0.7,1.1,1.1   c18.9,18.9,20,48.9,3.4,69.1c6.4,4.5,13.9,7.3,22.1,8c0.5-0.4,0.9-0.9,1.4-1.3C70.3,70.9,70.8,34.5,48.7,12.4z"></path><path d="M16.3,22.2c-0.3-0.3-0.7-0.6-1-1C8.8,29,4.9,39.1,4.9,50c0,13,5.5,24.7,14.3,33   C33.9,65.2,33,38.8,16.3,22.2z"></path><path d="M52.5,5c0.6,0.6,1.2,1.1,1.8,1.7c23.7,23.7,24.5,61.8,2.9,87.8C78.7,91.1,95.1,72.5,95.1,50   C95.1,26,76.3,6.3,52.5,5z"></path></g></svg></g><line x1="1.0500000000000007" y1="41" x2="33.95" y2="41" stroke="#0009ff" stroke-linecap="round"></line><path fill="#0009ff" fill-rule="nonzero" d="M0 20.81L0 0.19L5.59 0.19Q7.85 0.19 8.87 1.30Q9.89 2.40 9.89 4.90L9.89 4.90L9.89 5.81Q9.89 8.76 7.78 9.34L7.78 9.34Q9.07 9.67 9.60 10.90Q10.13 12.12 10.13 14.14L10.13 14.14Q10.13 17.42 9.14 19.12Q8.16 20.81 5.59 20.81L5.59 20.81L0 20.81ZM4.03 7.94L4.87 7.94Q5.40 7.94 5.59 7.55Q5.78 7.15 5.78 6.43L5.78 6.43L5.78 4.37Q5.78 3.36 4.90 3.36L4.90 3.36L4.03 3.36L4.03 7.94ZM4.44 17.18Q6.05 17.18 6.05 15.65L6.05 15.65L6.05 13.08Q6.05 12.14 5.77 11.66Q5.50 11.18 4.80 11.18L4.80 11.18L4.03 11.18L4.03 17.16L4.44 17.18ZM16.39 21Q13.58 21 12.34 19.61Q11.09 18.22 11.09 15.12L11.09 15.12L11.09 13.10L15.14 13.10L15.14 15.67Q15.14 17.21 16.13 17.21L16.13 17.21Q16.68 17.21 16.90 16.88Q17.11 16.56 17.11 15.79L17.11 15.79Q17.11 14.78 16.87 14.12Q16.63 13.46 16.26 13.02Q15.89 12.58 14.93 11.64L14.93 11.64L13.15 9.86Q11.09 7.85 11.09 5.40L11.09 5.40Q11.09 2.76 12.30 1.38Q13.51 0 15.84 0L15.84 0Q18.62 0 19.85 1.48Q21.07 2.95 21.07 6.10L21.07 6.10L16.87 6.10L16.85 4.68Q16.85 4.27 16.62 4.03Q16.39 3.79 15.98 3.79L15.98 3.79Q15.50 3.79 15.26 4.06Q15.02 4.32 15.02 4.78L15.02 4.78Q15.02 5.78 16.18 6.86L16.18 6.86L18.58 9.17Q19.42 9.98 19.97 10.72Q20.52 11.45 20.86 12.44Q21.19 13.44 21.19 14.81L21.19 14.81Q21.19 17.86 20.08 19.43Q18.96 21 16.39 21L16.39 21ZM26.59 20.81L22.56 20.81L22.56 0.19L26.81 0.19L28.70 10.06L28.70 0.19L32.69 0.19L32.69 20.81L28.66 20.81L26.59 10.49L26.59 20.81Z" transform="translate(1.156, 47)"></path></svg>